<?xml version="1.0" encoding="UTF-8" standalone="no"?>
<svg
   version="1.1"
   id="Layer_1"
   x="0px"
   y="0px"
   viewBox="0 0 122.88 122.88"
   xml:space="preserve"
   sodipodi:docname="icon.svg"
   width="122.88"
   height="122.88"
   inkscape:export-filename="../cde532c4/icon.png"
   inkscape:export-xdpi="96"
   inkscape:export-ydpi="96"
   inkscape:version="1.2.2 (732a01da63, 2022-12-09, custom)"
   xmlns:inkscape="http://www.inkscape.org/namespaces/inkscape"
   xmlns:sodipodi="http://sodipodi.sourceforge.net/DTD/sodipodi-0.dtd"
   xmlns="http://www.w3.org/2000/svg"
   xmlns:svg="http://www.w3.org/2000/svg"><defs
     id="defs141" /><sodipodi:namedview
     id="namedview139"
     pagecolor="#ffffff"
     bordercolor="#000000"
     borderopacity="0.25"
     inkscape:showpageshadow="2"
     inkscape:pageopacity="0.0"
     inkscape:pagecheckerboard="0"
     inkscape:deskcolor="#d1d1d1"
     showgrid="false"
     inkscape:zoom="5.8268229"
     inkscape:cx="54.661006"
     inkscape:cy="67.360894"
     inkscape:window-width="1366"
     inkscape:window-height="768"
     inkscape:window-x="0"
     inkscape:window-y="0"
     inkscape:window-maximized="1"
     inkscape:current-layer="Layer_1" /><style
     type="text/css"
     id="style132">.st0{fill-rule:evenodd;clip-rule:evenodd;fill:#CC0000;}</style><g
     id="g136"
     transform="translate(0,20.094568)"><path
       class="st0"
       d="m 3.79,75.42 h 42.8 c 0,0 -8.18,-37.33 18.91,-52.45 5.91,-2.87 24.71,-13.6 55.48,9.16 0.98,-0.81 1.9,-1.46 1.9,-1.46 0,0 -28.17,-28.12 -59.54,-24.98 C 47.52,7.1 28.12,21.46 16.74,40.42 5.54,59.08 3.84,74.92 3.79,75.41 Z M 48.22,64.58 c 0.11,2.87 0.38,5.2 0.65,6.83 l 6.5,2.33 c -0.49,-2.11 -0.98,-4.5 -1.3,-7.04 z M 8.94,49.3 2.71,47.02 C 1.68,49.35 0.54,52.06 0,53.52 l 6.23,2.28 c 0.7,-1.84 1.84,-4.49 2.71,-6.5 z M 25.3,25.09 21.45,21.73 c -1.41,1.35 -2.76,2.71 -4.01,4.06 l 4.17,3.58 C 22.76,27.9 24,26.44 25.3,25.09 Z m 23.73,25.73 4.39,3.47 c 0.22,-2.11 0.6,-4.23 1.14,-6.34 l -3.9,-3.09 c -0.71,2.01 -1.19,4.01 -1.63,5.96 z m 7.86,-17.45 2.6,3.9 c 0.92,-1.35 2,-2.6 3.2,-3.85 L 60.25,29.74 C 59,30.88 57.86,32.13 56.89,33.37 Z M 45.78,8.99 43.34,5.25 c -1.35,0.7 -2.76,1.46 -4.23,2.33 l 2.49,3.79 c 1.42,-0.86 2.77,-1.67 4.18,-2.38 z m 24.6,14.25 1.25,3.74 c 1.57,-0.76 3.14,-1.41 4.71,-1.9 L 75.15,21.5 c -1.84,0.55 -3.42,1.15 -4.77,1.74 z M 67.78,3.3 c 0.16,0 0.38,0 0.54,0 L 67.24,0 c -1.68,0 -3.41,0.11 -5.2,0.33 l 1.03,3.2 C 64.64,3.36 66.21,3.3 67.78,3.3 Z m 20.05,16.91 -0.22,3.41 c 1.79,0.05 3.58,0.27 5.36,0.65 l 0.22,-3.36 c -1.84,-0.38 -3.63,-0.59 -5.36,-0.7 z M 92.97,8.72 93.19,5.09 C 92.7,4.82 91.35,4.17 87.93,3.19 l -0.22,3.58 c 1.79,0.6 3.53,1.25 5.26,1.95 z"
       id="path134" /></g><path
     d="M 71.137446,87.919722 V 61.439999 h 42.021364 l 0.0164,26.479723 z m 3.71565,-3.71565 H 109.4595 V 65.155649 H 74.853096 Z m 0,0 V 65.155649 Z"
     id="path209"
     style="stroke-width:0.0619275;fill:#cc0000;fill-opacity:1"
     sodipodi:nodetypes="ccccccccccccc" /><path
     d="m 86.520889,80.317963 h 11.332734 v -3.71565 H 86.520889 Z m -7.679011,0.180385 h 3.715651 v -3.71565 h -3.715651 z m 22.913172,-0.180385 h 3.71566 v -3.71565 h -3.71566 z M 78.841878,72.75741 h 3.715651 v -3.715651 h -3.715651 z m 7.679011,0 h 3.715651 v -3.715651 h -3.715651 z m 7.617084,0 h 3.71565 v -3.715651 h -3.71565 z m 7.617077,-0.180385 h 3.71566 v -3.715651 h -3.71566 z"
     style="stroke-width:0.0619275;fill:#cc0000;fill-opacity:1"
     id="path568" /></svg>
